<svg width="90" height="90" viewBox="0 0 90 90" fill="none" xmlns="http://www.w3.org/2000/svg">
<path d="M60.1 2.1C58.8 0.7 57.1 0 55.2 0H23.1C19 0 15.7 3.3 15.7 7.4V40.1H6.8C4.2 40.1 2 42.2 2 44.9V62C2 64.6 4.1 66.8 6.8 66.8H51.5C54.1 66.8 56.3 64.7 56.3 62V44.8C56.3 42.2 54.2 40 51.5 40H23.7V8.4C23.7 8.2 23.9 8 24.1 8H54.8C56 8 57 9 57 10.2V24C57 28.1 60.3 31.4 64.4 31.4H77.5C78.7 31.4 79.7 32.4 79.7 33.6V81.6C79.7 81.8 79.5 82 79.3 82H24.1C23.9 82 23.7 81.8 23.7 81.6V75.1C23.7 74.5 23.2 73.9 22.5 73.9H16.8C16.2 73.9 15.6 74.4 15.6 75.1V82.6C15.6 86.7 18.9 90 23 90H80.3C84.4 90 87.7 86.7 87.7 82.6V33.2C87.7 31.4 87 29.7 85.8 28.4L60.1 2.1ZM21.2 58.2C21.2 58.3 21.2 58.4 21.2 58.5C21.2 58.6 21.2 58.7 21.1 58.7C21 58.7 21 58.8 20.9 58.9C20.8 59 20.7 59.1 20.5 59.2C20.3 59.3 20 59.4 19.7 59.5C19.4 59.6 19.1 59.7 18.7 59.8C18.3 59.9 17.9 59.9 17.5 59.9C16.6 59.9 15.9 59.8 15.2 59.5C14.5 59.2 13.9 58.8 13.4 58.3C12.9 57.8 12.5 57.1 12.3 56.3C12.1 55.5 11.9 54.6 11.9 53.5C11.9 52.4 12 51.5 12.3 50.6C12.6 49.7 13 49.1 13.5 48.5C14 47.9 14.6 47.5 15.4 47.2C16.2 46.9 16.9 46.8 17.8 46.8C18.2 46.8 18.5 46.8 18.8 46.9C19.1 47 19.4 47 19.7 47.1C20 47.2 20.2 47.3 20.4 47.4C20.6 47.5 20.8 47.6 20.9 47.7C21 47.8 21 47.9 21.1 47.9C21.2 47.9 21.2 48 21.2 48.1C21.2 48.2 21.2 48.3 21.2 48.4C21.2 48.5 21.2 48.7 21.2 48.9C21.2 49.1 21.2 49.3 21.2 49.4C21.2 49.5 21.2 49.6 21.1 49.7C21 49.8 21 49.8 21 49.9C21 50 20.9 50 20.8 50C20.7 50 20.6 49.9 20.4 49.8C20.2 49.7 20.1 49.6 19.8 49.4C19.5 49.2 19.3 49.1 19 49C18.7 48.9 18.3 49 17.8 49C17.3 49 16.9 49.1 16.5 49.3C16.1 49.5 15.8 49.8 15.5 50.2C15.2 50.6 15 51 14.9 51.6C14.8 52.2 14.7 52.7 14.7 53.4C14.7 54.1 14.8 54.8 14.9 55.3C15 55.8 15.3 56.3 15.6 56.6C15.9 56.9 16.2 57.2 16.6 57.4C17 57.6 17.5 57.7 18 57.7C18.5 57.7 18.8 57.6 19.2 57.5C19.6 57.4 19.8 57.3 20.1 57.1C20.4 56.9 20.5 56.9 20.7 56.7C20.9 56.5 21 56.5 21.1 56.5C21.2 56.5 21.2 56.5 21.3 56.5C21.4 56.5 21.4 56.6 21.4 56.7C21.4 56.8 21.4 56.9 21.5 57C21.6 57.1 21.5 57.3 21.5 57.6C21.2 58 21.2 58.1 21.2 58.2ZM35.3 47.2C35.4 47.1 35.5 47.1 35.7 47.1C35.9 47.1 36.2 47.1 36.5 47.1C36.8 47.1 37 47.1 37.2 47.1C37.4 47.1 37.5 47.1 37.6 47.2C37.7 47.3 37.8 47.3 37.8 47.3C37.8 47.3 37.9 47.4 37.9 47.5L41 57.2L44 47.5C44 47.4 44.1 47.3 44.1 47.2C44.1 47.1 44.2 47.1 44.3 47C44.4 46.9 44.5 46.9 44.7 46.9C44.9 46.9 45.1 46.9 45.4 46.9C45.7 46.9 45.9 46.9 46.1 46.9C46.3 46.9 46.4 47 46.4 47C46.4 47 46.5 47.2 46.5 47.3C46.5 47.4 46.4 47.6 46.3 47.8L42.5 59C42.5 59.1 42.4 59.2 42.4 59.3C42.4 59.4 42.3 59.4 42.1 59.5C41.9 59.6 41.8 59.6 41.6 59.6C41.4 59.6 41.1 59.6 40.8 59.6C40.5 59.6 40.3 59.6 40.1 59.6C39.9 59.6 39.8 59.6 39.6 59.6C39.4 59.6 39.4 59.6 39.3 59.5C39.2 59.4 39.2 59.4 39.1 59.4C39 59.4 39 59.3 39 59.3C39 59.3 39.1 59.3 39.1 59.2L35.3 48C35.2 47.8 35.2 47.6 35.2 47.4C35.2 47.2 35.2 47.2 35.3 47.2ZM24.3 57.4C24.3 57.3 24.3 57.2 24.4 57.1C24.5 57 24.5 57 24.5 56.9C24.5 56.8 24.6 56.8 24.7 56.8C24.8 56.8 24.9 56.9 25.1 57C25.3 57.1 25.5 57.2 25.7 57.4C25.9 57.6 26.3 57.6 26.6 57.8C26.9 58 27.4 58 27.9 58C28.2 58 28.5 58 28.7 57.9C28.9 57.8 29.2 57.7 29.3 57.6C29.4 57.5 29.6 57.3 29.7 57.1C29.8 56.9 29.8 56.7 29.8 56.4C29.8 56.1 29.7 55.9 29.6 55.7C29.5 55.5 29.2 55.3 29 55.2C28.8 55.1 28.5 54.9 28.1 54.8C27.7 54.7 27.5 54.5 27.1 54.4C26.7 54.3 26.4 54.1 26.1 53.9C25.8 53.7 25.5 53.5 25.2 53.2C24.9 52.9 24.7 52.6 24.6 52.2C24.5 51.8 24.4 51.4 24.4 50.8C24.4 50.2 24.5 49.7 24.7 49.2C24.9 48.7 25.2 48.4 25.6 48.1C26 47.8 26.4 47.6 26.9 47.4C27.4 47.2 28 47.2 28.5 47.2C28.8 47.2 29.1 47.2 29.4 47.3C29.7 47.4 30 47.4 30.2 47.5C30.4 47.6 30.7 47.7 30.9 47.8C31.1 47.9 31.2 48 31.3 48C31.4 48 31.4 48.1 31.4 48.2C31.4 48.3 31.4 48.3 31.5 48.4C31.6 48.5 31.5 48.6 31.5 48.7C31.5 48.8 31.5 49 31.5 49.1C31.5 49.3 31.5 49.4 31.5 49.6C31.5 49.8 31.5 49.8 31.5 49.9C31.5 50 31.4 50 31.4 50.1C31.4 50.2 31.3 50.2 31.2 50.2C31.1 50.2 31 50.2 30.9 50.1C30.8 50 30.6 49.9 30.3 49.8C30 49.7 30.1 49.1 29.8 49C29.5 48.9 29.2 48.9 28.8 48.9C28.5 48.9 28.3 48.9 28.1 49C27.9 49.1 27.7 49.2 27.6 49.3C27.5 49.4 27.4 49.6 27.3 49.7C27.2 49.8 27.1 50 27.1 50.2C27.1 50.5 27.2 50.7 27.3 50.9C27.4 51.1 27.7 51.3 27.9 51.4C28.1 51.5 28.4 51.7 28.8 51.8C29.2 51.9 29.5 52.1 29.8 52.2C30.1 52.3 30.5 52.5 30.8 52.7C31.1 52.9 31.4 53.1 31.7 53.4C32 53.7 32.2 54 32.3 54.4C32.4 54.8 32.5 55.2 32.5 55.7C32.5 56.4 32.4 56.9 32.1 57.4C31.8 57.9 31.5 58.3 31.1 58.7C30.7 59.1 30.2 59.3 29.6 59.5C29 59.7 28.4 59.8 27.8 59.8C27.4 59.8 27 59.8 26.6 59.7C26.2 59.6 25.9 59.5 25.6 59.4C25.3 59.3 25.1 59.2 24.9 59.1C24.7 59 24.6 59 24.5 59C24.4 59 24.4 58.8 24.3 58.6C24.2 58.4 24.2 58.2 24.2 57.9C24.3 57.7 24.3 57.5 24.3 57.4Z" fill="#146481"/>
</svg>
