<svg width="90" height="90" viewBox="0 0 90 90" fill="none" xmlns="http://www.w3.org/2000/svg">
<path d="M26.1477 57.9033C26.1477 56.4087 25.1106 55.5173 23.2807 55.5173C22.5334 55.5173 22.0274 55.5911 21.7627 55.6616V60.4572C22.0761 60.5277 22.4614 60.5512 22.9925 60.5512C24.943 60.5512 26.1477 59.5658 26.1477 57.9033Z" fill="#146481"/>
<path d="M37.4753 55.5676C36.6558 55.5676 36.1262 55.6383 35.813 55.7117V66.3323C36.1264 66.4059 36.6325 66.4059 37.09 66.4059C40.4144 66.4294 42.5825 64.5995 42.5825 60.722C42.606 57.3502 40.6303 55.5676 37.4753 55.5676Z" fill="#146481"/>
<path d="M58.5221 0H22.3744C17.0935 0 12.7955 4.30102 12.7955 9.57888V44.9999H11.8599C9.72855 44.9999 8 46.7268 8 48.86V72.269C8 74.402 9.72836 76.1287 11.8599 76.1287H12.7955V80.4211C12.7955 85.7048 17.0935 90 22.3744 90H71.6964C76.9739 90 81.2725 85.7046 81.2725 80.4211V22.6707L58.5221 0ZM18.1262 53.0845C19.2574 52.8934 20.8474 52.7492 23.0876 52.7492C25.3516 52.7492 26.9651 53.1814 28.0493 54.0494C29.0849 54.8674 29.7838 56.2175 29.7838 57.8065C29.7838 59.395 29.2542 60.7456 28.2906 61.6604C27.0374 62.8402 25.1839 63.3697 23.0158 63.3697C22.5332 63.3697 22.1007 63.3458 21.7625 63.299V69.1036H18.1262V53.0845ZM71.6964 84.1338H22.3744C20.3296 84.1338 18.6645 82.4687 18.6645 80.4211V76.1287H64.6428C66.7745 76.1287 68.5029 74.402 68.5029 72.269V48.86C68.5029 46.7268 66.7745 44.9999 64.6428 44.9999H18.6645V9.57888C18.6645 7.5371 20.3298 5.87202 22.3744 5.87202L56.3275 5.83655V18.3868C56.3275 22.0526 59.3018 25.0298 62.9704 25.0298L75.2647 24.9945L75.4031 80.4209C75.4031 82.4687 73.741 84.1338 71.6964 84.1338ZM32.1285 69.0301V53.0845C33.4772 52.8698 35.2351 52.7492 37.0902 52.7492C40.1732 52.7492 42.1724 53.3023 43.7389 54.4819C45.4247 55.7352 46.4837 57.7329 46.4837 60.6011C46.4837 63.7078 45.3525 65.8526 43.7858 67.1763C42.0765 68.5972 39.4745 69.2711 36.2957 69.2711C34.3921 69.2711 33.0434 69.1505 32.1285 69.0301ZM58.4165 59.5893V62.5753H52.5868V69.1036H48.902V52.8698H58.8253V55.8793H52.5868V59.5893H58.4165Z" fill="#146481"/>
</svg>
