<svg width="28" height="29" viewBox="0 0 28 29" fill="none" xmlns="http://www.w3.org/2000/svg">
<g clip-path="url(#clip0)">
<path d="M22.7112 10.062C22.2682 9.60411 21.7556 9.24419 21.1888 8.97885C19.7033 8.28344 18.5355 7.03851 17.879 5.49552C16.6641 2.63975 13.9044 0.645101 10.6934 0.64258C6.48887 0.639292 2.99794 4.10388 2.8397 8.44702C2.772 10.3059 3.30923 12.0321 4.26415 13.4321C5.47692 15.2102 5.79202 17.4753 5.16648 19.5526C4.27777 22.504 4.58763 25.301 6.27831 27.0487C9.24108 30.1114 15.3215 28.7915 19.8593 24.1008C24.3971 19.41 25.6739 13.1247 22.7112 10.062Z" fill="url(#paint0_linear)"/>
<path d="M25.1719 16.9907V15.4141C25.1719 15.2628 25.0532 15.1401 24.9068 15.1401H23.8489C23.7629 14.8152 23.6383 14.507 23.4805 14.2207L24.2285 13.4472C24.3319 13.3402 24.3319 13.1667 24.2284 13.0598L23.15 11.945C23.0465 11.838 22.8787 11.838 22.7752 11.9449L22.027 12.7181C21.75 12.555 21.4518 12.4262 21.1375 12.3373V11.2437C21.1375 11.0924 21.0188 10.9697 20.8725 10.9697H19.3473C19.2009 10.9697 19.0822 11.0924 19.0822 11.2437V12.3373C18.7679 12.4262 18.4698 12.555 18.1928 12.7181L17.4446 11.9449C17.341 11.838 17.1732 11.838 17.0698 11.945L15.9913 13.0598C15.8878 13.1667 15.8878 13.3402 15.9913 13.4472L16.7392 14.2207C16.5815 14.507 16.4569 14.8152 16.3708 15.1401H15.3129C15.1665 15.1401 15.0479 15.2628 15.0479 15.4141V16.9907C15.0479 17.142 15.1665 17.2647 15.3129 17.2647H16.3708C16.4568 17.5896 16.5814 17.8978 16.7392 18.1841L15.9913 18.9575C15.8878 19.0645 15.8878 19.2379 15.9913 19.345L17.0698 20.4597C17.1732 20.5667 17.3411 20.5668 17.4446 20.4598L18.1928 19.6866C18.4698 19.8497 18.768 19.9785 19.0822 20.0674V21.161C19.0822 21.3123 19.2009 21.435 19.3473 21.435H20.8725C21.0188 21.435 21.1375 21.3123 21.1375 21.161V20.0674C21.4518 19.9786 21.75 19.8498 22.027 19.6866L22.7752 20.4598C22.8787 20.5668 23.0465 20.5668 23.15 20.4597L24.2284 19.345C24.3319 19.238 24.3319 19.0645 24.2285 18.9575L23.4805 18.1841C23.6383 17.8978 23.7629 17.5895 23.8489 17.2647H24.9068C25.0532 17.2647 25.1719 17.142 25.1719 16.9907ZM20.1099 18.2574C19.0119 18.2574 18.1219 17.3373 18.1219 16.2024C18.1219 15.0674 19.0119 14.1474 20.1099 14.1474C21.2078 14.1474 22.0978 15.0674 22.0978 16.2024C22.0978 17.3373 21.2078 18.2574 20.1099 18.2574Z" fill="#FF9D33"/>
<path d="M15.5228 22.7832V21.6872C15.5228 21.5359 15.4042 21.4132 15.2578 21.4132H14.4991C14.4325 21.1618 14.3361 20.9233 14.214 20.7017L14.7504 20.147C14.8539 20.04 14.8539 19.8665 14.7504 19.7596L14.0006 18.9845C13.8971 18.8776 13.7293 18.8775 13.6258 18.9845L13.0892 19.539C12.8749 19.4128 12.6441 19.3131 12.4009 19.2443V18.46C12.4009 18.3087 12.2822 18.186 12.1358 18.186H11.0755C10.9291 18.186 10.8104 18.3087 10.8104 18.46V19.2443C10.5672 19.3131 10.3365 19.4128 10.1221 19.539L9.58548 18.9845C9.48195 18.8775 9.31416 18.8775 9.21068 18.9845L8.46092 19.7596C8.35744 19.8665 8.35739 20.04 8.46087 20.147L8.9973 20.7017C8.87522 20.9232 8.77879 21.1618 8.71226 21.4132H7.95354C7.80712 21.4132 7.68848 21.5359 7.68848 21.6872V22.7833C7.68848 22.9346 7.80712 23.0573 7.95354 23.0573H8.71226C8.77879 23.3087 8.87522 23.5472 8.9973 23.7688L8.46087 24.3235C8.35739 24.4305 8.35739 24.6039 8.46092 24.7109L9.21068 25.4859C9.31416 25.5929 9.482 25.593 9.58548 25.486L10.1221 24.9315C10.3364 25.0577 10.5672 25.1574 10.8104 25.2261V26.0104C10.8104 26.1617 10.9291 26.2844 11.0755 26.2844H12.1358C12.2822 26.2844 12.4009 26.1617 12.4009 26.0104V25.2261C12.6441 25.1574 12.8748 25.0577 13.0892 24.9315L13.6258 25.486C13.7293 25.593 13.8971 25.593 14.0006 25.4859L14.7504 24.7109C14.8539 24.6039 14.8539 24.4304 14.7504 24.3235L14.214 23.7688C14.3361 23.5472 14.4325 23.3087 14.4991 23.0573H15.2578C15.4041 23.0572 15.5228 22.9346 15.5228 22.7832ZM11.6056 23.8744C10.7298 23.8744 10.0198 23.1405 10.0198 22.2352C10.0198 21.3298 10.7298 20.5959 11.6056 20.5959C12.4815 20.5959 13.1914 21.3298 13.1914 22.2352C13.1914 23.1405 12.4815 23.8744 11.6056 23.8744Z" fill="#6C6CFF"/>
<path d="M15.5066 11.199V8.90649C15.5066 8.75519 15.388 8.63249 15.2416 8.63249H13.7378C13.6228 8.1981 13.4563 7.78601 13.2453 7.40318L14.3084 6.30379C14.4119 6.19676 14.4119 6.02332 14.3084 5.91635L12.7402 4.29527C12.6367 4.18831 12.4688 4.18825 12.3654 4.29522L11.3018 5.39422C10.9315 5.17618 10.5328 5.004 10.1126 4.88508V3.33064C10.1126 3.17934 9.9939 3.05664 9.84753 3.05664H7.62975C7.48338 3.05664 7.36468 3.17934 7.36468 3.33064V4.88508C6.94445 5.00394 6.5458 5.17612 6.17545 5.39422L5.11196 4.29522C5.00843 4.18825 4.84065 4.18825 4.73711 4.29527L3.16895 5.9163C3.06547 6.02327 3.06541 6.19676 3.16889 6.30379L4.23206 7.40318C4.02112 7.78601 3.85456 8.1981 3.73957 8.63249H2.23577C2.0894 8.63249 1.9707 8.75519 1.9707 8.90649V11.199C1.9707 11.3504 2.0894 11.473 2.23577 11.473H3.73957C3.85456 11.9074 4.02112 12.3195 4.23206 12.7023L3.16889 13.8017C3.06541 13.9087 3.06541 14.0821 3.16895 14.1892L4.73717 15.8102C4.84065 15.9172 5.00848 15.9173 5.11202 15.8103L6.1755 14.7113C6.54585 14.9293 6.9445 15.1015 7.36474 15.2204V16.7748C7.36474 16.9262 7.48343 17.0488 7.6298 17.0488H9.84758C9.99395 17.0488 10.1126 16.9262 10.1126 16.7748V15.2204C10.5329 15.1015 10.9315 14.9293 11.3019 14.7113L12.3654 15.8103C12.4689 15.9173 12.6367 15.9173 12.7402 15.8102L14.3084 14.1892C14.4119 14.0822 14.412 13.9087 14.3085 13.8017L13.2453 12.7023C13.4563 12.3195 13.6228 11.9074 13.7379 11.473H15.2416C15.3879 11.473 15.5066 11.3503 15.5066 11.199ZM8.73866 13.1526C7.08244 13.1526 5.73985 11.7648 5.73985 10.0527C5.73985 8.34069 7.08244 6.95283 8.73866 6.95283C10.3949 6.95283 11.7375 8.34069 11.7375 10.0527C11.7375 11.7648 10.3949 13.1526 8.73866 13.1526Z" fill="#FF6C6C"/>
<path d="M20.1098 6.41332C19.7232 6.41332 19.4087 6.08819 19.4087 5.68859C19.4087 5.28899 19.7232 4.96387 20.1098 4.96387C20.4964 4.96387 20.8109 5.28899 20.8109 5.68859C20.8109 6.08819 20.4963 6.41332 20.1098 6.41332ZM20.1098 5.51192C20.0155 5.51192 19.9388 5.59116 19.9388 5.68865C19.9388 5.78608 20.0155 5.86537 20.1098 5.86537C20.204 5.86537 20.2807 5.78613 20.2807 5.68865C20.2807 5.59116 20.204 5.51192 20.1098 5.51192Z" fill="#6C6CFF"/>
<path d="M20.1098 26.7986C19.7232 26.7986 19.4087 26.4735 19.4087 26.0739C19.4087 25.6742 19.7232 25.3491 20.1098 25.3491C20.4964 25.3491 20.8109 25.6742 20.8109 26.0739C20.8109 26.4735 20.4963 26.7986 20.1098 26.7986ZM20.1098 25.8971C20.0155 25.8971 19.9388 25.9764 19.9388 26.0739C19.9388 26.1713 20.0155 26.2506 20.1098 26.2506C20.204 26.2506 20.2807 26.1714 20.2807 26.0739C20.2807 25.9765 20.204 25.8971 20.1098 25.8971Z" fill="#FF9D33"/>
<path d="M11.6059 3.33085C11.2193 3.33085 10.9048 3.00572 10.9048 2.60613C10.9048 2.20647 11.2193 1.88135 11.6059 1.88135C11.9924 1.88135 12.307 2.20647 12.307 2.60613C12.307 3.00578 11.9924 3.33085 11.6059 3.33085ZM11.6059 2.4294C11.5116 2.4294 11.4349 2.50869 11.4349 2.60618C11.4349 2.70361 11.5116 2.78291 11.6059 2.78291C11.7001 2.78291 11.7768 2.70367 11.7768 2.60618C11.7768 2.50869 11.7001 2.4294 11.6059 2.4294Z" fill="#6C6CFF"/>
<path d="M17.4453 8.47844C17.3774 8.47844 17.3096 8.4517 17.2578 8.39816L16.6592 7.77936C16.5557 7.6724 16.5557 7.4989 16.6592 7.39193L17.2578 6.77314C17.3613 6.66612 17.5291 6.66612 17.6327 6.77314L18.2313 7.39193C18.281 7.44333 18.3089 7.51298 18.3089 7.58565C18.3089 7.65831 18.2809 7.72802 18.2313 7.77936L17.6327 8.39816C17.5809 8.4517 17.5131 8.47844 17.4453 8.47844ZM17.2215 7.58565L17.4453 7.81696L17.669 7.58565L17.4453 7.35434L17.2215 7.58565Z" fill="#FF6C6C"/>
<path d="M3.11177 19.8349C3.04147 19.8349 2.97404 19.806 2.92432 19.7546L2.3257 19.1358C2.22216 19.0288 2.22216 18.8553 2.3257 18.7484L2.92432 18.1296C3.02785 18.0226 3.19563 18.0226 3.29917 18.1296L3.89779 18.7484C3.94751 18.7998 3.9754 18.8694 3.9754 18.9421C3.9754 19.0148 3.94746 19.0845 3.89779 19.1358L3.29917 19.7547C3.24949 19.806 3.18206 19.8349 3.11177 19.8349ZM2.88795 18.9421L3.11171 19.1735L3.33548 18.9421L3.11171 18.7108L2.88795 18.9421Z" fill="#FF9D33"/>
<path d="M25.1719 16.9936V15.417C25.1719 15.2657 25.0532 15.143 24.9068 15.143H23.8489C23.7629 14.8181 23.6383 14.5099 23.4805 14.2236L24.2285 13.4501C24.3319 13.3431 24.3319 13.1697 24.2284 13.0627L23.15 11.9479C23.0465 11.841 22.8787 11.8409 22.7752 11.9479L22.027 12.721C21.75 12.558 21.4518 12.4292 21.1375 12.3402V11.2467C21.1375 11.0954 21.0188 10.9727 20.8725 10.9727H19.3473C19.2009 10.9727 19.0822 11.0954 19.0822 11.2467V12.3402C18.7679 12.4291 18.4698 12.5579 18.1928 12.721L17.4446 11.9479C17.341 11.8409 17.1732 11.8409 17.0698 11.9479L15.9913 13.0627C15.8878 13.1697 15.8878 13.3432 15.9913 13.4501L16.7392 14.2236C16.5815 14.5099 16.4569 14.8182 16.3708 15.143H15.3129C15.1665 15.143 15.0479 15.2657 15.0479 15.417V16.9936C15.0479 17.1449 15.1665 17.2676 15.3129 17.2676H16.3708C16.4568 17.5925 16.5814 17.9007 16.7392 18.187L15.9913 18.9604C15.8878 19.0674 15.8878 19.2409 15.9913 19.3479L17.0698 20.4627C17.1732 20.5696 17.3411 20.5697 17.4446 20.4627L18.1928 19.6896C18.4698 19.8526 18.768 19.9814 19.0822 20.0704V21.1639C19.0822 21.3152 19.2009 21.4379 19.3473 21.4379H20.8725C21.0188 21.4379 21.1375 21.3152 21.1375 21.1639V20.0704C21.4518 19.9815 21.75 19.8527 22.027 19.6896L22.7752 20.4627C22.8787 20.5697 23.0465 20.5697 23.15 20.4627L24.2284 19.3479C24.3319 19.2409 24.3319 19.0674 24.2285 18.9604L23.4805 18.187C23.6383 17.9007 23.7629 17.5924 23.8489 17.2676H24.9068C25.0532 17.2676 25.1719 17.1449 25.1719 16.9936ZM20.1099 18.2603C19.0119 18.2603 18.1219 17.3403 18.1219 16.2053C18.1219 15.0703 19.0119 14.1503 20.1099 14.1503C21.2078 14.1503 22.0978 15.0703 22.0978 16.2053C22.0978 17.3403 21.2078 18.2603 20.1099 18.2603Z" fill="url(#paint1_linear)"/>
<path d="M15.5066 11.1995V8.90698C15.5066 8.75568 15.388 8.63298 15.2416 8.63298H13.7378C13.6228 8.19859 13.4563 7.78649 13.2453 7.40366L14.3084 6.30428C14.4119 6.19725 14.4119 6.02381 14.3084 5.91684L12.7402 4.29576C12.6367 4.18879 12.4688 4.18874 12.3654 4.29571L11.3018 5.39471C10.9315 5.17667 10.5328 5.00449 10.1126 4.88557V3.33113C10.1126 3.17983 9.9939 3.05713 9.84753 3.05713H7.62975C7.48338 3.05713 7.36468 3.17983 7.36468 3.33113V4.88557C6.94445 5.00443 6.5458 5.17661 6.17545 5.39471L5.11196 4.29571C5.00843 4.18874 4.84065 4.18874 4.73711 4.29576L3.16895 5.91679C3.06547 6.02376 3.06541 6.19725 3.16889 6.30428L4.23206 7.40366C4.02112 7.78649 3.85456 8.19859 3.73957 8.63298H2.23577C2.0894 8.63298 1.9707 8.75568 1.9707 8.90698V11.1995C1.9707 11.3509 2.0894 11.4735 2.23577 11.4735H3.73957C3.85456 11.9079 4.02112 12.32 4.23206 12.7028L3.16889 13.8022C3.06541 13.9092 3.06541 14.0826 3.16895 14.1897L4.73717 15.8107C4.84065 15.9177 5.00848 15.9178 5.11202 15.8108L6.1755 14.7118C6.54585 14.9298 6.9445 15.102 7.36474 15.2209V16.7753C7.36474 16.9267 7.48343 17.0493 7.6298 17.0493H9.84758C9.99395 17.0493 10.1126 16.9267 10.1126 16.7753V15.2209C10.5329 15.102 10.9315 14.9298 11.3019 14.7118L12.3654 15.8108C12.4689 15.9178 12.6367 15.9178 12.7402 15.8107L14.3084 14.1897C14.4119 14.0827 14.412 13.9092 14.3085 13.8022L13.2453 12.7028C13.4563 12.32 13.6228 11.9079 13.7379 11.4735H15.2416C15.3879 11.4735 15.5066 11.3508 15.5066 11.1995ZM8.73866 13.1531C7.08244 13.1531 5.73985 11.7653 5.73985 10.0532C5.73985 8.34117 7.08244 6.95332 8.73866 6.95332C10.3949 6.95332 11.7375 8.34117 11.7375 10.0532C11.7375 11.7653 10.3949 13.1531 8.73866 13.1531Z" fill="url(#paint2_linear)"/>
</g>
<defs>
<linearGradient id="paint0_linear" x1="27.2877" y1="18.4847" x2="-16.2599" y2="2.56503" gradientUnits="userSpaceOnUse">
<stop offset="0.007" stop-color="#146481" stop-opacity="0.78"/>
<stop offset="0.992" stop-color="#FFE8DC" stop-opacity="0"/>
</linearGradient>
<linearGradient id="paint1_linear" x1="20.1099" y1="21.4379" x2="20.1099" y2="10.9727" gradientUnits="userSpaceOnUse">
<stop stop-color="#FF4D4D" stop-opacity="0.4"/>
<stop offset="1" stop-color="#FF4D4D" stop-opacity="0"/>
</linearGradient>
<linearGradient id="paint2_linear" x1="8.73866" y1="17.0493" x2="8.73866" y2="3.05713" gradientUnits="userSpaceOnUse">
<stop stop-color="#FF4D4D" stop-opacity="0.4"/>
<stop offset="1" stop-color="#FF4D4D" stop-opacity="0"/>
</linearGradient>
<clipPath id="clip0">
<rect width="27.1424" height="28.0574" fill="white" transform="translate(0 0.642578)"/>
</clipPath>
</defs>
</svg>
