<svg width="27" height="27" viewBox="0 0 27 27" fill="none" xmlns="http://www.w3.org/2000/svg">
<path d="M21.4073 21.1058L21.4009 21.1107L21.3953 21.1165C19.3024 23.2931 16.513 24.4923 13.5 24.4923C10.4867 24.4923 7.66924 23.2929 5.57659 21.1165L5.5766 21.1165L5.57521 21.1151L5.53354 21.0734L5.73929 21.0254C5.96896 20.9717 6.27695 20.8996 6.59025 20.8256C6.90351 20.7517 7.22222 20.676 7.47324 20.6152C7.71314 20.5572 7.89801 20.5112 7.95244 20.494C7.98655 20.486 8.02086 20.478 8.05534 20.47C8.8718 20.2797 9.78945 20.0658 10.5685 19.7732C10.9755 19.6204 11.3488 19.4446 11.6522 19.2369C11.9551 19.0295 12.1943 18.7863 12.3241 18.4963C12.6219 17.8413 12.5568 17.0762 12.1249 16.2412L12.1245 16.2406C10.4377 13.0355 10.1241 10.828 11.1083 9.18771C11.354 8.77817 11.6521 8.45331 12.0293 8.20976L12.0808 8.18404L12.0809 8.18427L12.0871 8.18058C12.9591 7.66281 13.7449 7.71838 14.2574 7.88002C14.5018 7.96155 14.7202 8.07053 14.9134 8.18088C15.3189 8.42441 15.6455 8.77729 15.8917 9.18771L15.8921 9.18835C16.8756 10.8002 16.5625 13.0352 14.8755 16.2406L14.8751 16.2412C14.4448 17.0733 14.3487 17.8114 14.6761 18.497C14.8061 18.7866 15.0451 19.0297 15.3478 19.2369C15.6512 19.4446 16.0245 19.6204 16.4315 19.7732C17.2106 20.0658 18.1282 20.2797 18.9447 20.47C18.9805 20.4783 19.0162 20.4866 19.0516 20.4949L19.0516 20.4951L19.0579 20.4962C19.1378 20.5095 19.7867 20.6629 20.4236 20.815C20.7402 20.8907 21.0516 20.9654 21.2838 21.0213L21.4626 21.0643L21.4073 21.1058ZM4.36002 19.6321L4.35646 19.6214L4.34917 19.6104C3.14927 17.7966 2.50766 15.7042 2.50766 13.5C2.50766 7.33338 7.33338 2.50766 13.5 2.50766C19.554 2.50766 24.4923 7.44599 24.4923 13.5C24.4923 15.6762 23.8507 17.7962 22.6233 19.6095L22.6229 19.6101L22.605 19.6369L19.8852 19.0051L19.8853 19.005L19.8822 19.0044C19.7798 18.9839 19.6694 18.9586 19.5534 18.932C19.3645 18.8887 19.1607 18.842 18.9524 18.8072C18.1079 18.6242 17.4383 18.4705 16.9555 18.3107C16.714 18.2308 16.5238 18.1508 16.3837 18.0673C16.2434 17.9837 16.1626 17.9021 16.1251 17.8229C16.0938 17.7489 16.0852 17.6445 16.1109 17.5094C16.1366 17.3743 16.1956 17.2151 16.2908 17.0384L16.291 17.0379C18.2387 13.3683 18.5683 10.5387 17.2739 8.38113C16.6404 7.31588 15.633 6.56867 14.3709 6.22447L14.371 6.22424L14.3642 6.22289C14.0763 6.16532 13.7882 6.13649 13.5 6.13649C13.0662 6.13649 12.6063 6.22288 12.1767 6.36572C12.11 6.38316 12.0049 6.42865 11.9219 6.4652C11.9093 6.4707 11.8972 6.47607 11.8855 6.48123C11.8553 6.49457 11.8282 6.50656 11.8056 6.51615C11.79 6.52277 11.7781 6.52759 11.7699 6.53063H11.7605L11.7404 6.54001C10.8773 6.94279 10.1868 7.57593 9.6983 8.38053L9.69803 8.38098C8.40374 10.5381 8.73283 13.3954 10.652 17.0367C10.8475 17.4278 10.8828 17.671 10.8186 17.8229C10.7811 17.9021 10.7003 17.9837 10.56 18.0673C10.4199 18.1508 10.2297 18.2308 9.98815 18.3107C9.50523 18.4706 8.83542 18.6243 7.99054 18.8073C7.82784 18.8372 6.89869 19.0484 6.01355 19.2513C5.56832 19.3534 5.13278 19.4537 4.80855 19.5285L4.41838 19.6186L4.36002 19.6321ZM13.5 0.9C6.54725 0.9 0.9 6.54725 0.9 13.5C0.9 20.4527 6.54725 26.1 13.5 26.1C20.4527 26.1 26.1 20.4527 26.1 13.5C26.1 6.54725 20.4527 0.9 13.5 0.9Z" fill="#006A2B" stroke="#006A2B" stroke-width="0.2"/>
</svg>
