<svg width="90" height="90" viewBox="0 0 90 90" fill="none" xmlns="http://www.w3.org/2000/svg">
<path d="M9.96681 40.3709H9.96776H11.294V6.81058C11.294 5.14155 11.9564 3.54075 13.1357 2.35962C14.3151 1.1785 15.915 0.513592 17.5842 0.510869H17.585H48.7783C48.9135 0.494833 49.0502 0.496542 49.185 0.515996L49.2113 0.519789L49.237 0.526344C49.3405 0.552707 49.4411 0.588724 49.5377 0.633864H49.6375L49.7547 0.702693C49.9037 0.790176 50.0404 0.897001 50.1614 1.02038L50.1615 1.02028L50.1696 1.029L76.5847 29.2949C76.5854 29.2957 76.5861 29.2964 76.5868 29.2972C76.7415 29.4595 76.8647 29.6492 76.9503 29.8564L76.9761 29.9189L76.9844 29.9859C76.9899 30.0305 76.9925 30.0754 76.9922 30.1203C77.0249 30.2405 77.0454 30.3637 77.0534 30.4882L77.0544 30.5042V30.5203V30.5204V30.5204V30.5204V30.5204V30.5204V30.5205V30.5205V30.5205V30.5205V30.5205V30.5206V30.5206V30.5206V30.5206V30.5207V30.5207V30.5207V30.5208V30.5208V30.5208V30.5209V30.5209V30.5209V30.521V30.521V30.5211V30.5211V30.5212V30.5212V30.5212V30.5213V30.5213V30.5214V30.5214V30.5215V30.5215V30.5216V30.5217V30.5217V30.5218V30.5218V30.5219V30.5219V30.522V30.5221V30.5221V30.5222V30.5223V30.5223V30.5224V30.5225V30.5225V30.5226V30.5227V30.5228V30.5228V30.5229V30.523V30.5231V30.5231V30.5232V30.5233V30.5234V30.5235V30.5236V30.5236V30.5237V30.5238V30.5239V30.524V30.5241V30.5242V30.5243V30.5244V30.5245V30.5245V30.5246V30.5247V30.5248V30.5249V30.525V30.5251V30.5252V30.5253V30.5254V30.5256V30.5257V30.5258V30.5259V30.526V30.5261V30.5262V30.5263V30.5264V30.5265V30.5267V30.5268V30.5269V30.527V30.5271V30.5272V30.5274V30.5275V30.5276V30.5277V30.5278V30.528V30.5281V30.5282V30.5283V30.5285V30.5286V30.5287V30.5289V30.529V30.5291V30.5293V30.5294V30.5295V30.5297V30.5298V30.5299V30.5301V30.5302V30.5303V30.5305V30.5306V30.5308V30.5309V30.531V30.5312V30.5313V30.5315V30.5316V30.5318V30.5319V30.5321V30.5322V30.5324V30.5325V30.5327V30.5328V30.533V30.5331V30.5333V30.5334V30.5336V30.5337V30.5339V30.5341V30.5342V30.5344V30.5345V30.5347V30.5349V30.535V30.5352V30.5353V30.5355V30.5357V30.5358V30.536V30.5362V30.5363V30.5365V30.5367V30.5368V30.537V30.5372V30.5373V30.5375V30.5377V30.5379V30.538V30.5382V30.5384V30.5386V30.5387V30.5389V30.5391V30.5393V30.5394V30.5396V30.5398V30.54V30.5402V30.5403V30.5405V30.5407V30.5409V30.5411V30.5413V30.5414V30.5416V30.5418V30.542V30.5422V30.5424V30.5425V30.5427V30.5429V30.5431V30.5433V30.5435V30.5437V30.5439V30.5441V30.5443V30.5444V30.5446V30.5448V30.545V30.5452V30.5454V30.5456V30.5458V30.546V30.5462V30.5464V30.5466V30.5468V30.547V30.5472V30.5474V30.5476V30.5478V30.548V30.5482V30.5484V30.5486V30.5488V30.549V30.5492V30.5494V30.5496V30.5498V30.55V30.5502V30.5504V30.5506V30.5508V30.551V30.5512V30.5514V30.5516V30.5519V30.5521V30.5523V30.5525V30.5527V30.5529V30.5531V30.5533V30.5535V30.5537V30.5539V30.5542V30.5544V30.5546V30.5548V30.555V30.5552V30.5554V30.5556V30.5558V30.5561V30.5563V30.5565V30.5567V30.5569V30.5571V30.5573V30.5576V30.5578V30.558V30.5582V30.5584V30.5586V30.5589V30.5591V30.5593V30.5595V30.5597V30.5599V30.5602V30.5604V30.5606V30.5608V30.561V30.5612V30.5615V30.5617V30.5619V30.5621V30.5623V30.5626V30.5628V30.563V30.5632V30.5634V30.5637V30.5639V30.5641V30.5643V30.5645V30.5648V30.565V30.5652V30.5654V30.5656V30.5659V30.5661V30.5663V30.5665V30.5667V30.567V30.5672V30.5674V30.5676V30.5678V30.5681V30.5683V30.5685V30.5687V30.569V30.5692V30.5694V30.5696V30.5698V30.5701V30.5703V30.5705V30.5707V30.5709V30.5712V30.5714V30.5716V30.5718V30.5721V30.5723V30.5725V30.5727V30.5729V30.5732V30.5734V30.5736V30.5738V30.574V30.5743V30.5745V30.5747V30.5749V30.5752V30.5754V30.5756V30.5758V30.576V30.5763V30.5765V30.5767V30.5769V30.5771V30.5774V30.5776V30.5778V30.578V30.5782V30.5785V30.5787V30.5789V30.5791V30.5793V30.5796V30.5798V30.58V30.5802V30.5804V30.5806V30.5809V30.5811V30.5813V30.5815V30.5817V30.582V30.5822V30.5824V30.5826V30.5828V30.583V30.5833V30.5835V30.5837V30.5839V30.5841V30.5843V30.5845V30.5848V30.585V30.5852V30.5854V30.5856V30.5858V30.586V30.5862V30.5865V30.5867V30.5869V30.5871V30.5873V30.5875V30.5877V30.5879V30.5881V30.5884V30.5886V30.5888V30.589V30.5892V30.5894V30.5896V30.5898V30.59V30.5902V30.5904V30.5906V30.5908V30.591V30.5913V30.5915V30.5917V30.5919V30.5921V30.5923V30.5925V30.5927V30.5929V30.5931V30.5933V30.5935V30.5937V30.5939V30.5941V30.5943V30.5945V30.5947V30.5949V30.5951V30.5953V30.5955V30.5957V30.5959V30.5961V30.5962V30.5964V30.5966V30.5968V30.597V30.5972V30.5974V30.5976V30.5978V30.598V30.5982V30.5984V30.5985V30.5987V30.5989V30.5991V30.5993V30.5995V30.5997V30.5999V30.6V30.6002V30.6004V30.6006V30.6008V30.601V30.6011V30.6013V30.6015V30.6017V30.6019V30.602V30.6022V30.6024V30.6026V30.6027V30.6029V30.6031V30.6033V30.6034V30.6036V30.6038V30.604V30.6041V30.6043V30.6045V30.6047V30.6048V30.605V30.6052V30.6053V30.6055V40.3709H79.5161H79.5171C80.9661 40.3736 82.355 40.9504 83.3796 41.9749C84.4043 42.9994 84.9811 44.3882 84.9839 45.8371V45.838L84.9839 76.5869L84.9839 76.5879C84.9811 78.0368 84.4043 79.4255 83.3796 80.45C82.355 81.4745 80.9661 82.0513 79.5171 82.054H79.5161H77.1112L77.1112 83.2097L77.1112 83.2106C77.1085 84.8796 76.4435 86.4793 75.2622 87.6585C74.0809 88.8377 72.4799 89.5 70.8108 89.5H17.585H17.5842C15.9168 89.4973 14.3184 88.8338 13.1394 87.6549C11.9603 86.476 11.2967 84.8778 11.294 83.2106V83.2097V82.054H9.96776H9.96681C8.51779 82.0513 7.1289 81.4745 6.10427 80.45C5.07964 79.4255 4.50277 78.0368 4.50002 76.5879V76.5869V45.838V45.8371C4.50277 44.3882 5.07964 42.9994 6.10427 41.9749C7.1289 40.9504 8.51779 40.3736 9.96681 40.3709ZM46.9009 26.0263V4.34923H17.5858C16.9345 4.35151 16.3107 4.61175 15.8509 5.07294C15.391 5.53431 15.1327 6.15917 15.1327 6.81058V40.3709H73.2725V32.5247L53.4 32.5247L53.3992 32.5247C51.6766 32.522 50.0253 31.8365 48.8072 30.6186C47.5891 29.4006 46.9036 27.7495 46.9009 26.0271V26.0263ZM15.1327 83.2097C15.1327 83.86 15.3911 84.4837 15.8509 84.9435C16.3108 85.4033 16.9346 85.6616 17.585 85.6616H70.8108C71.4623 85.6616 72.0873 85.4034 72.5487 84.9435C73.01 84.4837 73.2703 83.8599 73.2725 83.2087V82.054H15.1327V83.2097ZM8.33873 76.5869C8.33873 77.0189 8.51035 77.4331 8.81584 77.7386C9.12134 78.0441 9.53569 78.2157 9.96776 78.2157H79.5161C79.9482 78.2157 80.3626 78.0441 80.6681 77.7386C80.9736 77.4331 81.1452 77.0189 81.1452 76.5869V45.838C81.1452 45.4061 80.9736 44.9918 80.6681 44.6863C80.3626 44.3809 79.9482 44.2092 79.5161 44.2092H9.96776C9.53569 44.2092 9.12134 44.3809 8.81584 44.6863C8.51035 44.9918 8.33873 45.4061 8.33873 45.838V76.5869Z" fill="#146481" stroke="#146481"/>
<rect x="7.83838" y="42.6344" width="73.8064" height="36.9032" fill="#146481"/>
<path d="M29.8234 61.0387L36.078 52.0116C36.1713 51.8737 36.2266 51.7136 36.2382 51.5474C36.2499 51.3813 36.2174 51.215 36.1442 51.0654C36.0643 50.9111 35.9434 50.7818 35.7949 50.6917C35.6463 50.6016 35.4758 50.5541 35.3021 50.5544H33.5326C33.3792 50.5557 33.2284 50.5943 33.0933 50.6668C32.9581 50.7394 32.8426 50.8437 32.7567 50.9708L27.7984 58.2379L22.9442 50.9802C22.8576 50.8487 22.7396 50.7409 22.6008 50.6666C22.462 50.5922 22.3068 50.5537 22.1494 50.5544H20.3799C20.2087 50.5549 20.0409 50.6018 19.8943 50.6901C19.7476 50.7784 19.6277 50.9048 19.5472 51.0559C19.4713 51.2039 19.4356 51.3693 19.4439 51.5354C19.4522 51.7015 19.5042 51.8625 19.5945 52.0022L25.6788 61.1333L19.3201 70.5957C19.2371 70.7396 19.1934 70.9027 19.1934 71.0688C19.1934 71.2349 19.2371 71.3981 19.3201 71.542C19.4006 71.693 19.5205 71.8195 19.6672 71.9078C19.8138 71.9961 19.9816 72.043 20.1528 72.0435H21.9223C22.0781 72.0426 22.2314 72.0034 22.3684 71.9291C22.5054 71.8548 22.6219 71.7478 22.7077 71.6177L27.8079 63.9247L32.9649 71.6177C33.0506 71.7478 33.1671 71.8548 33.3041 71.9291C33.4411 72.0034 33.5944 72.0426 33.7502 72.0435H35.5481C35.7193 72.043 35.8871 71.9961 36.0338 71.9078C36.1804 71.8195 36.3003 71.693 36.3808 71.542C36.4568 71.394 36.4924 71.2286 36.4841 71.0625C36.4758 70.8964 36.4238 70.7354 36.3335 70.5957L29.8234 61.0387Z" fill="white"/>
<path d="M52.2777 68.7884H42.664V51.4723C42.664 51.2213 42.5643 50.9806 42.3868 50.8032C42.2094 50.6257 41.9687 50.526 41.7177 50.526H40.1943C39.9433 50.526 39.7026 50.6257 39.5252 50.8032C39.3477 50.9806 39.248 51.2213 39.248 51.4723V71.1351C39.248 71.386 39.3477 71.6267 39.5252 71.8042C39.7026 71.9816 39.9433 72.0813 40.1943 72.0813H51.9939C52.2166 72.0853 52.4336 72.0107 52.6066 71.8705C52.7797 71.7303 52.8978 71.5335 52.9401 71.3148L53.224 69.9144C53.251 69.777 53.2473 69.6352 53.2129 69.4994C53.1785 69.3636 53.1144 69.2371 53.0253 69.129C52.9343 69.0197 52.8198 68.9323 52.6904 68.8734C52.561 68.8144 52.4199 68.7853 52.2777 68.7884Z" fill="white"/>
<path d="M63.3578 59.0989C59.5728 58.1527 59.1565 57.4335 59.1565 56.1088C59.1565 53.9892 61.0489 53.5445 62.5913 53.5445C64.9001 53.5445 66.1681 54.4908 66.5844 56.3832C66.6306 56.5984 66.7503 56.7908 66.923 56.9272C67.0957 57.0637 67.3106 57.1356 67.5307 57.1308H69.1014C69.2335 57.1304 69.364 57.1025 69.4846 57.0487C69.6052 56.9949 69.7132 56.9165 69.8016 56.8185C69.8926 56.7199 69.9616 56.6032 70.004 56.4759C70.0464 56.3487 70.0613 56.2139 70.0477 56.0804C69.7543 53.3742 67.6631 50.2043 62.6954 50.2043C57.7276 50.2043 55.6554 53.1944 55.6554 56.1561C55.6554 59.8748 58.3238 61.3037 62.3264 62.2972C66.5844 63.3475 66.9156 64.5682 66.9156 66.0822C66.9156 68.5518 64.7298 69.0723 62.8941 69.0723C60.2541 69.0723 58.778 67.9841 58.2575 65.6469C58.2095 65.4334 58.0889 65.2432 57.9164 65.1087C57.7439 64.9741 57.53 64.9035 57.3113 64.9088H55.7406C55.6039 64.9088 55.4688 64.9384 55.3447 64.9956C55.2205 65.0527 55.1103 65.1361 55.0214 65.24C54.9342 65.342 54.8697 65.4615 54.8322 65.5903C54.7946 65.7192 54.785 65.8546 54.8038 65.9875C55.3431 69.9523 58.3427 72.3084 62.8184 72.3084C68.4296 72.3084 70.3883 68.8925 70.3883 65.9686C70.4261 63.4421 69.584 60.6507 63.3578 59.0989Z" fill="white"/>
</svg>
